<svg xmlns="http://www.w3.org/2000/svg" fill="none" height="74" viewBox="0 0 478 74" width="478">
<path d="M61.7123 9.17242L57.2063 20.5586C50.1322 16.131 40.7617 12.7586 31.3912 12.7586C21.1357 12.7586 16.2711 16.4483 16.2711 20.9793C16.2711 25.5104 19.8979 27.8276 34.7461 30.3586C53.4871 33.5242 62.684 38.1586 62.684 51.5448C62.684 64.9311 49.7793 73.469 32.6232 73.469C19.8921 73.469 9.01766 69.7793 0 63.8759L4.59849 52.1724C12.2916 57.3379 22.8131 61.131 33.3289 61.131C43.8447 61.131 49.3282 57.7586 49.3282 52.2759C49.3282 47.4276 45.4354 45.2138 31.2928 43C12.4593 39.9448 3.00203 35.0966 3.00203 21.8138C3.00203 10.1104 14.4086 0.524149 31.9985 0.524149C43.7579 0.524149 53.3945 3.79311 61.7007 9.16553L61.7123 9.17242Z" fill="#222222"/>
<path d="M206.764 59.1381V72.1036H174.488C171.844 72.1036 169.311 70.8553 167.448 68.6278C163.914 64.414 161.149 61.1174 157.615 56.9036C155.747 54.676 154.7 51.6553 154.7 48.5105V1.91051H167.784V55.9312C167.784 57.7105 168.993 59.145 170.479 59.145H206.77L206.764 59.1381Z" fill="#222222"/>
<path d="M477.994 59.1381V72.1036H445.718C443.075 72.1036 440.541 70.8553 438.679 68.6278C435.144 64.414 432.38 61.1174 428.845 56.9036C426.977 54.676 425.93 51.6553 425.93 48.5105V1.91051H439.014V55.9312C439.014 57.7105 440.223 59.145 441.71 59.145H478L477.994 59.1381Z" fill="#222222"/>
<path d="M238.768 1.89659L260.089 49.2414C260.876 50.9862 262.976 50.9725 263.751 49.2207L284.655 1.8897H303.662V72.0897H290.757V23.7311C290.757 22.0207 288.843 21.4483 288.166 22.9587L268.343 67.1793C266.955 70.269 264.26 72.2 261.321 72.2C258.383 72.2 255.682 70.269 254.299 67.1793L234.477 22.9587C233.8 21.4483 231.885 22.0207 231.885 23.7311V72.0897H219.86V1.8897H238.78L238.768 1.89659Z" fill="#222222"/>
<path d="M333.832 57.869L327.822 72.0966H314.299L344.712 1.36555H358.768L389.269 72.0966H375.213L369.203 57.869H333.832ZM340.837 45.4H362.135C363.951 45.4 364.917 42.8483 363.719 41.2276C358.739 34.4621 355.165 26.4 353.279 17.6897C353.175 17.1931 353.065 16.7104 352.961 16.2345C352.556 14.3587 350.317 14.3587 349.912 16.2345L349.525 18.0069C347.674 26.4828 344.221 34.3449 339.426 40.9862L339.235 41.2552C338.06 42.8828 339.032 45.4138 340.837 45.4138V45.4Z" fill="#222222"/>
<path d="M412.84 1.89647V72.0965H399.756V1.89647H412.84Z" fill="#222222"/>
<path d="M108.657 0C87.1741 0 73.2051 15.9172 73.2051 37C73.2051 58.0828 87.1741 74 108.657 74C130.14 74 144.109 58.0828 144.109 37C144.109 15.9172 130.319 0 108.657 0ZM108.443 61.931C89.7654 61.931 85.2884 57.9241 86.2428 49.8897C87.2204 41.7035 87.2377 35.3793 86.2717 24.5862C85.3521 14.3517 92.3683 12.0621 108.443 12.0621C123.609 12.0621 132.019 13.6345 131.123 25.0069C130.249 36.0897 130.51 40.0207 131.111 48.7931C131.713 57.5655 129.11 61.931 108.443 61.931Z" fill="#222222"/>
</svg>
