<svg width="92" height="37" viewBox="0 0 92 37" fill="none" xmlns="http://www.w3.org/2000/svg">
<path d="M1.392 11.592H4.608V13.272H4.656C5.104 12.632 5.64 12.136 6.264 11.784C6.904 11.432 7.632 11.256 8.448 11.256C9.232 11.256 9.944 11.408 10.584 11.712C11.24 12.016 11.736 12.552 12.072 13.32C12.44 12.776 12.936 12.296 13.56 11.88C14.2 11.464 14.952 11.256 15.816 11.256C16.472 11.256 17.08 11.336 17.64 11.496C18.2 11.656 18.68 11.912 19.08 12.264C19.48 12.616 19.792 13.08 20.016 13.656C20.24 14.216 20.352 14.896 20.352 15.696V24H16.944V16.968C16.944 16.552 16.928 16.16 16.896 15.792C16.864 15.424 16.776 15.104 16.632 14.832C16.488 14.56 16.272 14.344 15.984 14.184C15.712 14.024 15.336 13.944 14.856 13.944C14.376 13.944 13.984 14.04 13.68 14.232C13.392 14.408 13.16 14.648 12.984 14.952C12.824 15.24 12.712 15.576 12.648 15.96C12.6 16.328 12.576 16.704 12.576 17.088V24H9.168V17.04C9.168 16.672 9.16 16.312 9.144 15.96C9.128 15.592 9.056 15.256 8.928 14.952C8.816 14.648 8.616 14.408 8.328 14.232C8.056 14.04 7.648 13.944 7.104 13.944C6.944 13.944 6.728 13.984 6.456 14.064C6.2 14.128 5.944 14.264 5.688 14.472C5.448 14.664 5.24 14.952 5.064 15.336C4.888 15.704 4.8 16.192 4.8 16.8V24H1.392V11.592ZM22.902 15.408C22.95 14.608 23.15 13.944 23.502 13.416C23.854 12.888 24.302 12.464 24.846 12.144C25.39 11.824 25.998 11.6 26.67 11.472C27.358 11.328 28.046 11.256 28.734 11.256C29.358 11.256 29.99 11.304 30.63 11.4C31.27 11.48 31.854 11.648 32.382 11.904C32.91 12.16 33.342 12.52 33.678 12.984C34.014 13.432 34.182 14.032 34.182 14.784V21.24C34.182 21.8 34.214 22.336 34.278 22.848C34.342 23.36 34.454 23.744 34.614 24H31.158C31.094 23.808 31.038 23.616 30.99 23.424C30.958 23.216 30.934 23.008 30.918 22.8C30.374 23.36 29.734 23.752 28.998 23.976C28.262 24.2 27.51 24.312 26.742 24.312C26.15 24.312 25.598 24.24 25.086 24.096C24.574 23.952 24.126 23.728 23.742 23.424C23.358 23.12 23.054 22.736 22.83 22.272C22.622 21.808 22.518 21.256 22.518 20.616C22.518 19.912 22.638 19.336 22.878 18.888C23.134 18.424 23.454 18.056 23.838 17.784C24.238 17.512 24.686 17.312 25.182 17.184C25.694 17.04 26.206 16.928 26.718 16.848C27.23 16.768 27.734 16.704 28.23 16.656C28.726 16.608 29.166 16.536 29.55 16.44C29.934 16.344 30.238 16.208 30.462 16.032C30.686 15.84 30.79 15.568 30.774 15.216C30.774 14.848 30.71 14.56 30.582 14.352C30.47 14.128 30.31 13.96 30.102 13.848C29.91 13.72 29.678 13.64 29.406 13.608C29.15 13.56 28.87 13.536 28.566 13.536C27.894 13.536 27.366 13.68 26.982 13.968C26.598 14.256 26.374 14.736 26.31 15.408H22.902ZM30.774 17.928C30.63 18.056 30.446 18.16 30.222 18.24C30.014 18.304 29.782 18.36 29.526 18.408C29.286 18.456 29.03 18.496 28.758 18.528C28.486 18.56 28.214 18.6 27.942 18.648C27.686 18.696 27.43 18.76 27.174 18.84C26.934 18.92 26.718 19.032 26.526 19.176C26.35 19.304 26.206 19.472 26.094 19.68C25.982 19.888 25.926 20.152 25.926 20.472C25.926 20.776 25.982 21.032 26.094 21.24C26.206 21.448 26.358 21.616 26.55 21.744C26.742 21.856 26.966 21.936 27.222 21.984C27.478 22.032 27.742 22.056 28.014 22.056C28.686 22.056 29.206 21.944 29.574 21.72C29.942 21.496 30.214 21.232 30.39 20.928C30.566 20.608 30.67 20.288 30.702 19.968C30.75 19.648 30.774 19.392 30.774 19.2V17.928ZM40.3313 9.672H36.9233V6.864H40.3313V9.672ZM36.9233 11.592H40.3313V24H36.9233V11.592ZM43.1108 6.864H46.5188V24H43.1108V6.864ZM49.3463 20.304H53.1143V24H49.3463V20.304ZM56.6259 13.872H54.5859V11.592H56.6259V10.632C56.6259 9.528 56.9699 8.624 57.6579 7.92C58.3459 7.216 59.3859 6.864 60.7779 6.864C61.0819 6.864 61.3859 6.88 61.6899 6.912C61.9939 6.928 62.2899 6.944 62.5779 6.96V9.504C62.1779 9.456 61.7619 9.432 61.3299 9.432C60.8659 9.432 60.5299 9.544 60.3219 9.768C60.1299 9.976 60.0339 10.336 60.0339 10.848V11.592H62.3859V13.872H60.0339V24H56.6259V13.872ZM75.5141 24H72.2741V22.272H72.2021C71.7701 22.992 71.2101 23.512 70.5221 23.832C69.8341 24.152 69.1301 24.312 68.4101 24.312C67.4981 24.312 66.7461 24.192 66.1541 23.952C65.5781 23.712 65.1221 23.376 64.7861 22.944C64.4501 22.496 64.2101 21.96 64.0661 21.336C63.9381 20.696 63.8741 19.992 63.8741 19.224V11.592H67.2821V18.6C67.2821 19.624 67.4421 20.392 67.7621 20.904C68.0821 21.4 68.6501 21.648 69.4661 21.648C70.3941 21.648 71.0661 21.376 71.4821 20.832C71.8981 20.272 72.1061 19.36 72.1061 18.096V11.592H75.5141V24ZM78.1007 11.592H81.3407V13.32H81.4127C81.8447 12.6 82.4047 12.08 83.0927 11.76C83.7807 11.424 84.4847 11.256 85.2047 11.256C86.1167 11.256 86.8607 11.384 87.4367 11.64C88.0287 11.88 88.4927 12.224 88.8287 12.672C89.1647 13.104 89.3967 13.64 89.5247 14.28C89.6687 14.904 89.7407 15.6 89.7407 16.368V24H86.3327V16.992C86.3327 15.968 86.1727 15.208 85.8527 14.712C85.5327 14.2 84.9647 13.944 84.1487 13.944C83.2207 13.944 82.5487 14.224 82.1327 14.784C81.7167 15.328 81.5087 16.232 81.5087 17.496V24H78.1007V11.592Z" fill="url(#paint0_linear_4159_1413)"/>
<path d="M0.536 29.288H1.216V31.424H1.232C1.344 31.1947 1.52 31.0293 1.76 30.928C2 30.8213 2.264 30.768 2.552 30.768C2.872 30.768 3.14933 30.8267 3.384 30.944C3.624 31.0613 3.82133 31.2213 3.976 31.424C4.136 31.6213 4.256 31.8507 4.336 32.112C4.416 32.3733 4.456 32.6507 4.456 32.944C4.456 33.2373 4.416 33.5147 4.336 33.776C4.26133 34.0373 4.144 34.2667 3.984 34.464C3.82933 34.656 3.632 34.808 3.392 34.92C3.15733 35.032 2.88267 35.088 2.568 35.088C2.46667 35.088 2.352 35.0773 2.224 35.056C2.10133 35.0347 1.97867 35 1.856 34.952C1.73333 34.904 1.616 34.84 1.504 34.76C1.39733 34.6747 1.30667 34.5707 1.232 34.448H1.216V35H0.536V29.288ZM3.736 32.896C3.736 32.704 3.70933 32.5173 3.656 32.336C3.608 32.1493 3.53067 31.984 3.424 31.84C3.32267 31.696 3.18933 31.5813 3.024 31.496C2.864 31.4107 2.67467 31.368 2.456 31.368C2.22667 31.368 2.032 31.4133 1.872 31.504C1.712 31.5947 1.58133 31.7147 1.48 31.864C1.37867 32.008 1.304 32.1733 1.256 32.36C1.21333 32.5467 1.192 32.736 1.192 32.928C1.192 33.1307 1.216 33.328 1.264 33.52C1.312 33.7067 1.38667 33.872 1.488 34.016C1.59467 34.16 1.73067 34.2773 1.896 34.368C2.06133 34.4533 2.26133 34.496 2.496 34.496C2.73067 34.496 2.92533 34.4507 3.08 34.36C3.24 34.2693 3.368 34.1493 3.464 34C3.56 33.8507 3.62933 33.68 3.672 33.488C3.71467 33.296 3.736 33.0987 3.736 32.896ZM6.87819 35.552C6.79819 35.7547 6.71819 35.9253 6.63819 36.064C6.56352 36.2027 6.47819 36.3147 6.38219 36.4C6.29152 36.4907 6.18752 36.5547 6.07019 36.592C5.95819 36.6347 5.82752 36.656 5.67819 36.656C5.59819 36.656 5.51819 36.6507 5.43819 36.64C5.35819 36.6293 5.28085 36.6107 5.20619 36.584V35.96C5.26485 35.9867 5.33152 36.008 5.40619 36.024C5.48619 36.0453 5.55285 36.056 5.60619 36.056C5.74485 36.056 5.85952 36.0213 5.95019 35.952C6.04619 35.888 6.11819 35.7947 6.16619 35.672L6.44619 34.976L4.80619 30.864H5.57419L6.78219 34.248H6.79819L7.95819 30.864H8.67819L6.87819 35.552Z" fill="white"/>
<path d="M18.6665 29.843L18.2528 30.7255C17.6032 30.3823 16.7428 30.1209 15.8824 30.1209C14.9407 30.1209 14.494 30.4069 14.494 30.7581C14.494 31.1093 14.827 31.2889 16.1904 31.4851C17.9112 31.7305 18.7557 32.0897 18.7557 33.1272C18.7557 34.1648 17.5708 34.8266 15.9955 34.8266C14.8265 34.8266 13.828 34.5406 13 34.083L13.4222 33.1759C14.1286 33.5763 15.0947 33.8703 16.0603 33.8703C17.0259 33.8703 17.5294 33.6089 17.5294 33.1839C17.5294 32.8081 17.1719 32.6365 15.8733 32.4649C14.144 32.2281 13.2757 31.8523 13.2757 30.8228C13.2757 29.9157 14.323 29.1727 15.9381 29.1727C17.0179 29.1727 17.9027 29.426 18.6654 29.8424L18.6665 29.843Z" fill="white"/>
<path d="M31.9852 33.7158V34.7207H29.0215C28.7788 34.7207 28.5462 34.624 28.3752 34.4513C28.0507 34.1247 27.7968 33.8692 27.4723 33.5426C27.3007 33.3699 27.2046 33.1358 27.2046 32.892V29.2801H28.406V33.4672C28.406 33.6051 28.517 33.7163 28.6535 33.7163H31.9857L31.9852 33.7158Z" fill="white"/>
<path d="M56.89 33.7158V34.7207H53.9263C53.6836 34.7207 53.451 34.624 53.28 34.4513C52.9554 34.1247 52.7016 33.8692 52.3771 33.5426C52.2055 33.3699 52.1094 33.1358 52.1094 32.892V29.2801H53.3108V33.4672C53.3108 33.6051 53.4218 33.7163 53.5583 33.7163H56.8905L56.89 33.7158Z" fill="white"/>
<path d="M34.9242 29.279L36.8819 32.9487C36.9541 33.0839 37.1469 33.0828 37.2181 32.9471L39.1376 29.2785H40.8828V34.7196H39.6979V30.9714C39.6979 30.8388 39.5221 30.7944 39.46 30.9115L37.6398 34.339C37.5123 34.5785 37.2648 34.7282 36.995 34.7282C36.7252 34.7282 36.4772 34.5785 36.3503 34.339L34.5301 30.9115C34.468 30.7944 34.2922 30.8388 34.2922 30.9714V34.7196H33.188V29.2785H34.9253L34.9242 29.279Z" fill="white"/>
<path d="M46.9002 33.6174H43.653L43.1011 34.7202H41.8594L44.652 29.2379H45.9426L48.7432 34.7202H47.4526L46.9007 33.6174H46.9002ZM44.2961 32.6509H46.2517C46.4185 32.6509 46.5072 32.4532 46.3972 32.3275C45.94 31.8031 45.6117 31.1783 45.4386 30.5031C45.429 30.4646 45.4189 30.4272 45.4094 30.3903C45.3722 30.2449 45.1666 30.2449 45.1295 30.3903L45.0939 30.5277C44.9239 31.1847 44.6068 31.7941 44.1666 32.3088L44.149 32.3297C44.0412 32.4558 44.1304 32.652 44.2961 32.652V32.6509Z" fill="white"/>
<path d="M50.9074 29.279V34.7202H49.7061V29.279H50.9074Z" fill="white"/>
<path d="M22.9769 29.132C21.0043 29.132 19.7217 30.3658 19.7217 31.9999C19.7217 33.634 21.0043 34.8677 22.9769 34.8677C24.9495 34.8677 26.2321 33.634 26.2321 31.9999C26.2321 30.3658 24.9659 29.132 22.9769 29.132ZM22.9572 33.9323C21.2423 33.9323 20.8312 33.6217 20.9188 32.999C21.0086 32.3644 21.0102 31.8743 20.9215 31.0377C20.837 30.2444 21.4813 30.067 22.9572 30.067C24.3498 30.067 25.1221 30.1888 25.0398 31.0703C24.9596 31.9293 24.9835 32.234 25.0387 32.914C25.0939 33.5939 24.8549 33.9323 22.9572 33.9323Z" fill="white"/>
<defs>
<linearGradient id="paint0_linear_4159_1413" x1="86.2597" y1="5.42045" x2="66.093" y2="51.7105" gradientUnits="userSpaceOnUse">
<stop stop-color="#1EFA9B"/>
<stop offset="0.44" stop-color="#5C8ED8"/>
<stop offset="1" stop-color="#9846FF"/>
</linearGradient>
</defs>
</svg>
