<svg width="131" height="48" viewBox="0 0 131 48" fill="none" xmlns="http://www.w3.org/2000/svg">
<path d="M117.381 33.4984L109.823 16.9852H103.551L114.347 39.2661L114.153 39.937C113.882 40.8289 113.312 41.599 112.538 42.1161C111.764 42.6331 110.835 42.865 109.91 42.7721C108.827 42.7621 107.764 42.4753 106.822 41.9389L105.818 46.7111C107.267 47.3096 108.818 47.6219 110.385 47.6309C114.703 47.6309 117.316 46.0401 119.476 41.3546L130.909 16.9852H124.852L117.381 33.4984Z" fill="white"/>
<path d="M63.968 9.11821H45.8514V39.4717H51.7895V28.315H63.968C70.5863 28.315 74.9373 24.9713 74.9373 18.7166C74.9373 12.462 70.5863 9.11821 63.968 9.11821ZM63.6442 23.0018H51.768V14.3448H63.6442C67.0775 14.3448 69.0424 15.9139 69.0424 18.6733C69.0424 21.4327 67.0775 23.0018 63.6442 23.0018Z" fill="white"/>
<path d="M99.7635 33.7148V24.5709C99.7635 19.1603 95.8875 16.3576 89.2368 16.3576C83.8385 16.3576 79.1097 18.8789 77.7817 22.7529L82.6617 24.4843C83.3851 22.5473 85.9007 21.1189 89.0317 21.1189C92.7457 21.1189 94.3112 22.6339 94.3112 24.4843V25.0795L85.4796 26.0534C80.3944 26.5945 77.0475 28.8777 77.0475 32.9573C77.0475 37.4265 80.8803 39.8288 85.9655 39.8288C89.2432 39.9311 92.4352 38.7692 94.8834 36.5824C95.7687 38.7467 96.6756 40.1967 102.711 39.4284V34.9051C100.292 35.4895 99.7635 34.9051 99.7635 33.7148ZM94.3652 30.8147C94.3652 33.7581 90.2517 35.3163 86.8076 35.3163C84.184 35.3163 82.6077 34.4723 82.6077 32.795C82.6077 31.1177 83.9033 30.5117 86.4081 30.2196L94.3868 29.2889L94.3652 30.8147Z" fill="white"/>
<path d="M34.6207 32.3513C34.6627 32.4778 34.6627 32.6144 34.6207 32.7409C34.5963 32.867 34.5364 32.9834 34.4479 33.0763L28.7365 39.0821C28.6107 39.2118 28.4602 39.3148 28.2939 39.3851C28.1272 39.4583 27.9469 39.4952 27.7649 39.4933H0.676325C0.550875 39.4944 0.427568 39.4607 0.320039 39.3959C0.212582 39.3227 0.126803 39.2217 0.0717194 39.1038C0.0336764 38.9841 0.0336764 38.8555 0.0717194 38.7358C0.094108 38.6113 0.150118 38.4953 0.233667 38.4004L5.95584 32.3946C6.08169 32.265 6.23221 32.1619 6.3985 32.0916C6.56489 32.0174 6.74543 31.9805 6.92753 31.9834H33.9729C34.1034 31.9809 34.2316 32.0187 34.34 32.0916C34.4615 32.1418 34.561 32.234 34.6207 32.3513ZM28.7473 20.9458C28.6187 20.8195 28.4689 20.717 28.3047 20.6428C28.1364 20.5747 27.9571 20.5381 27.7757 20.5346H0.676325C0.549306 20.5364 0.425348 20.5739 0.318491 20.6428C0.211634 20.7116 0.126148 20.8091 0.0717194 20.9241C0.034376 21.0439 0.034376 21.1723 0.0717194 21.2921C0.0899022 21.4179 0.146467 21.5351 0.233667 21.6275L5.95584 27.6441C6.08449 27.7704 6.23434 27.8729 6.3985 27.9471C6.5665 28.0161 6.74597 28.0528 6.92753 28.0553H33.9729C34.1034 28.0578 34.2316 28.02 34.34 27.9471C34.449 27.8834 34.5328 27.784 34.5775 27.6657C34.6328 27.5506 34.6511 27.4211 34.6299 27.2951C34.6086 27.1691 34.5488 27.0528 34.4587 26.9624L28.7473 20.9458ZM0.320039 16.5091C0.427568 16.5739 0.550875 16.6076 0.676325 16.6065H27.7757C27.9577 16.6084 28.138 16.5715 28.3047 16.4983C28.471 16.428 28.6215 16.3249 28.7473 16.1953L34.4587 10.1895C34.5471 10.0966 34.6071 9.98014 34.6315 9.85406C34.6688 9.73427 34.6688 9.60592 34.6315 9.48614C34.5868 9.36784 34.5029 9.26852 34.3939 9.20479C34.2855 9.13186 34.1574 9.09409 34.0269 9.09657H6.88434C6.70224 9.09366 6.52171 9.13059 6.35531 9.20479C6.18903 9.2751 6.03851 9.37813 5.91265 9.50778L0.201279 15.5352C0.110715 15.6266 0.0504028 15.7437 0.0285322 15.8706C-0.00951073 15.9903 -0.00951073 16.1189 0.0285322 16.2386C0.0986063 16.3542 0.199584 16.448 0.320039 16.5091V16.5091Z" fill="url(#paint0_linear_88_107)"/>
<defs>
<linearGradient id="paint0_linear_88_107" x1="2.92567" y1="40.2178" x2="30.7467" y2="8.23501" gradientUnits="userSpaceOnUse">
<stop offset="0.08" stop-color="#9945FF"/>
<stop offset="0.3" stop-color="#8752F3"/>
<stop offset="0.5" stop-color="#5497D5"/>
<stop offset="0.6" stop-color="#43B4CA"/>
<stop offset="0.72" stop-color="#28E0B9"/>
<stop offset="0.97" stop-color="#19FB9B"/>
</linearGradient>
</defs>
</svg>
